# This file uses centimeters as units for non-parametric coordinates.

mtllib CNVR_oven_middle_UVed.mtl
g default
v 0.000000 1.117260 0.571192
v 0.000000 0.609360 0.571192
v 0.000000 1.625158 0.571192
v 0.000000 1.625158 -0.571192
v 0.000000 1.117260 -0.571192
v 0.000000 0.609360 -0.571192
v 0.000000 0.609360 0.000000
v -1.000048 0.863310 0.571192
v -1.000048 0.609360 0.571192
v 0.000000 0.863310 0.571192
v -1.000048 1.117259 0.571192
v -1.000048 1.625158 0.571192
v -1.000048 1.371209 -0.571192
v -1.000048 1.625158 -0.571192
v 0.000000 1.371209 -0.571192
v -1.000048 1.117259 -0.571192
v -1.000048 0.609360 -0.285596
v -1.000048 0.609360 -0.571192
v 0.000000 0.609360 -0.285596
v -1.000048 0.609360 0.000000
v 0.000000 1.371209 0.571192
v -1.000048 1.371209 0.571192
v 0.000000 0.863310 -0.571192
v -1.000048 0.863310 -0.571192
v 0.000000 0.609360 0.285596
v -1.000048 0.609360 0.285596
v 0.000000 1.625158 0.684596
v 0.000000 1.625158 -0.684596
v -1.000048 1.625158 -0.684596
v -1.000048 1.625158 0.684596
v -0.000000 1.869667 0.684596
v 0.000000 1.869667 -0.684596
v -1.000048 1.869667 -0.684596
v -1.000048 1.869667 0.684596
v 0.000000 2.010484 0.626875
v 0.000000 2.010484 -0.626875
v -1.000050 2.010484 -0.626875
v -1.000050 2.010484 0.626875
v 0.000000 2.010484 0.593046
v 0.000000 2.010484 -0.593046
v -1.000050 2.010484 -0.592771
v -1.000050 2.010484 0.592771
v -0.000000 1.823091 0.593046
v 0.000000 1.823091 -0.593046
v -1.000050 1.823091 -0.592771
v -1.000050 1.823091 0.592771
v -0.000000 1.823091 0.552866
v 0.000000 1.823091 -0.552866
v -1.000050 1.823091 -0.552308
v -1.000050 1.823091 0.552308
v -0.000000 2.220701 0.552866
v 0.000000 2.220701 -0.552866
v -1.000050 2.220701 -0.552308
v -1.000050 2.220701 0.552308
v 0.000000 2.220701 0.604578
v 0.000000 2.220701 -0.604578
v -1.000050 2.220701 -0.604456
v -1.000050 2.220701 0.604456
v -1.000049 2.403960 -0.000000
v -1.000049 2.403960 0.312556
v -0.000000 2.403960 0.604578
v -0.000000 2.403960 0.312556
v -0.000000 2.403960 -0.604578
v -0.000000 2.403960 -0.312556
v -1.000050 2.403960 -0.604456
v -1.000049 2.403960 -0.312556
v -1.000050 2.403960 0.604456
v -0.000000 2.403960 -0.000000
v 0.579241 0.609360 -0.548268
v 0.579241 0.609360 -0.484829
v 0.633216 0.609360 -0.548268
v 0.633216 0.609360 -0.484829
v -0.579241 0.609360 0.548268
v -0.579241 0.609360 0.484829
v -0.633216 0.609360 0.548268
v -0.633216 0.609360 0.484829
v -0.633216 0.609360 -0.548268
v -0.579241 0.609360 -0.548268
v -0.579241 0.609360 -0.484829
v -0.633216 0.609360 -0.484829
v 0.579241 0.609360 0.548268
v 0.633216 0.609360 0.548268
v 0.579241 0.609360 0.484829
v 0.633216 0.609360 0.484829
v 0.579241 0.020433 -0.548268
v 0.579241 0.020433 -0.484829
v 0.633216 0.020433 -0.548268
v 0.633216 0.020433 -0.484829
v -0.579241 0.020433 0.548268
v -0.579241 0.020433 0.484829
v -0.633216 0.020433 0.548268
v -0.633216 0.020433 0.484829
v -0.633216 0.020433 -0.548268
v -0.579241 0.020433 -0.548268
v -0.579241 0.020433 -0.484829
v -0.633216 0.020433 -0.484829
v 0.579241 0.020433 0.548268
v 0.633216 0.020433 0.548268
v 0.579241 0.020433 0.484829
v 0.633216 0.020433 0.484829
v 1.000049 0.609360 0.571192
v 1.000049 0.863310 0.571192
v 1.000049 0.609360 0.000000
v 1.000049 0.609360 -0.285596
v 1.000049 0.609360 0.285596
v 1.000049 0.609360 -0.571192
v 1.000049 0.863310 -0.571192
v 1.000049 1.117260 -0.571192
v 1.000049 1.371209 -0.571192
v 1.000049 1.625158 -0.571192
v 1.000050 2.403960 -0.604456
v 1.000049 2.403960 -0.312556
v 1.000050 2.220701 -0.604456
v 1.000050 2.220701 -0.552308
v 1.000050 1.823091 -0.552308
v 1.000050 1.823091 -0.592771
v 1.000050 2.010484 -0.592771
v 1.000050 2.010484 -0.626875
v 1.000049 1.869667 -0.684596
v 1.000049 1.625158 -0.684596
v 1.000049 2.403960 -0.000000
v 1.000049 2.403960 0.312556
v 1.000050 2.403960 0.604456
v 1.000049 1.625158 0.571192
v 1.000049 1.371209 0.571192
v 1.000049 1.625158 0.684596
v 1.000049 1.869667 0.684596
v 1.000050 2.010484 0.626875
v 1.000050 2.010484 0.592771
v 1.000050 1.823091 0.592771
v 1.000050 1.823091 0.552308
v 1.000050 2.220701 0.552308
v 1.000050 2.220701 0.604456
v 1.000049 1.117260 0.571192
vt 0.156467 0.139293
vt 0.148378 0.106234
vt 0.278558 0.074371
vt 0.286647 0.107430
vt 0.172647 0.205414
vt 0.180738 0.238476
vt 0.050546 0.270312
vt 0.042460 0.237256
vt 0.234778 0.459314
vt 0.225473 0.421293
vt 0.355669 0.389475
vt 0.364961 0.427469
vt 0.254695 0.540701
vt 0.263999 0.578723
vt 0.133804 0.610540
vt 0.124511 0.572546
vt 0.316825 0.794601
vt 0.308734 0.761539
vt 0.438926 0.729703
vt 0.447012 0.762760
vt 0.333005 0.860722
vt 0.341094 0.893782
vt 0.210914 0.925644
vt 0.202825 0.892586
vt 0.633475 0.071441
vt 0.626965 0.065973
vt 0.631618 0.060434
vt 0.638128 0.065903
vt 0.374174 0.084807
vt 0.365807 0.086319
vt 0.364521 0.079201
vt 0.372887 0.077689
vt 0.018194 0.138082
vt 0.026283 0.171141
vt 0.164557 0.172354
vt 0.034371 0.204198
vt 0.095302 0.453188
vt 0.104602 0.491181
vt 0.244736 0.500008
vt 0.114557 0.531863
vt 0.178556 0.793417
vt 0.186646 0.826472
vt 0.324915 0.827662
vt 0.194735 0.859529
vt 0.497923 0.082572
vt 0.491341 0.079572
vt 0.494867 0.071836
vt 0.501449 0.074836
vt 0.350192 0.930961
vt 0.130182 0.031876
vt 0.000000 0.063726
vt 0.220012 0.962822
vt 0.294737 0.140487
vt 0.310916 0.206599
vt 0.302826 0.173544
vt 0.374915 0.468152
vt 0.394170 0.546827
vt 0.384870 0.508835
vt 0.455101 0.795817
vt 0.471279 0.861933
vt 0.463189 0.828875
vt 0.489472 0.936290
vt 0.480375 0.899111
vt 0.759732 0.058407
vt 0.765085 0.063273
vt 0.759365 0.069564
vt 0.754013 0.064698
vt 0.139280 0.069054
vt 0.269460 0.037194
vt 0.009097 0.100904
vt 0.314529 0.221360
vt 0.184351 0.253241
vt 0.174943 0.778656
vt 0.305121 0.746775
vt 0.054157 0.285074
vt 0.435315 0.714942
vt 0.322321 0.253184
vt 0.192141 0.285075
vt 0.167151 0.746831
vt 0.297331 0.714941
vt 0.061942 0.316901
vt 0.427530 0.683114
vt 0.327171 0.272992
vt 0.196990 0.304890
vt 0.162301 0.727024
vt 0.292482 0.695126
vt 0.066786 0.336711
vt 0.422686 0.663305
vt 0.328258 0.277430
vt 0.198068 0.309294
vt 0.161214 0.722585
vt 0.291404 0.690722
vt 0.067871 0.341150
vt 0.421601 0.658866
vt 0.334226 0.301820
vt 0.204039 0.333694
vt 0.155246 0.698196
vt 0.285433 0.666322
vt 0.073840 0.365539
vt 0.415632 0.634476
vt 0.335516 0.307086
vt 0.205320 0.338925
vt 0.153956 0.692930
vt 0.284153 0.661090
vt 0.075127 0.370806
vt 0.414345 0.629210
vt 0.348180 0.358834
vt 0.217986 0.390699
vt 0.141292 0.641182
vt 0.271486 0.609317
vt 0.087796 0.422552
vt 0.401676 0.577464
vt 0.349838 0.365622
vt 0.219633 0.397432
vt 0.139634 0.634394
vt 0.269839 0.602583
vt 0.089459 0.429338
vt 0.400013 0.570677
vt 0.566531 0.015205
vt 0.582708 0.131876
vt 0.682385 0.000000
vt 0.698562 0.116670
vt 0.288138 0.100357
vt 0.388211 0.162477
vt 0.350483 0.001531
vt 0.450557 0.063651
vt 0.419520 0.046842
vt 0.465193 0.154393
vt 0.527597 0.000014
vt 0.573270 0.107566
vt 0.823484 0.116369
vt 0.812828 0.000008
vt 0.706269 0.127963
vt 0.695614 0.011602
vt 0.228055 0.074816
vt 0.700917 0.123097
vt 0.221029 0.076536
vt 0.817764 0.122660
vt 0.230076 0.083075
vt 0.701333 0.005311
vt 0.223050 0.084794
vt 0.818181 0.004874
vt 0.261417 0.925199
vt 0.534180 0.003014
vt 0.268443 0.923479
vt 0.423045 0.039105
vt 0.266422 0.915221
vt 0.458610 0.151394
vt 0.259396 0.916941
vt 0.569745 0.115303
vt 0.063196 0.115157
vt 0.358850 0.000019
vt 0.065217 0.123416
vt 0.286851 0.093238
vt 0.070222 0.113438
vt 0.451843 0.070770
vt 0.072243 0.121697
vt 0.379845 0.163989
vt 0.426276 0.884858
vt 0.688895 0.005469
vt 0.424255 0.876600
vt 0.571184 0.009667
vt 0.419250 0.886577
vt 0.693909 0.122209
vt 0.417229 0.878319
vt 0.576198 0.126407
vt 0.260362 0.000016
vt 0.359290 0.968140
vt 0.229110 1.000000
vn 0.000000 0.000000 1.000000
vn 0.000000 0.000000 1.000000
vn 0.000000 0.000000 1.000000
vn 0.000000 0.000000 1.000000
vn 0.000000 0.000000 1.000000
vn 0.000000 0.000000 1.000000
vn 0.000000 0.000000 1.000000
vn 0.000000 0.000000 1.000000
vn -0.000000 1.000000 -0.000002
vn -0.000000 1.000000 -0.000002
vn -0.000000 1.000000 -0.000002
vn -0.000000 1.000000 -0.000002
vn 0.000000 1.000000 0.000001
vn 0.000000 1.000000 0.000001
vn 0.000000 1.000000 0.000001
vn 0.000000 1.000000 0.000001
vn 0.000000 0.000000 -1.000000
vn 0.000000 0.000000 -1.000000
vn 0.000000 0.000000 -1.000000
vn 0.000000 0.000000 -1.000000
vn 0.000000 0.000000 -1.000000
vn 0.000000 0.000000 -1.000000
vn 0.000000 0.000000 -1.000000
vn 0.000000 0.000000 -1.000000
vn 0.000000 -1.000000 0.000000
vn 0.000000 -1.000000 0.000000
vn 0.000000 -1.000000 0.000000
vn 0.000000 -1.000000 0.000000
vn 0.000000 -1.000000 0.000000
vn 0.000000 -1.000000 0.000000
vn 0.000000 -1.000000 0.000000
vn 0.000000 -1.000000 0.000000
vn 0.000000 0.000000 1.000000
vn 0.000000 0.000000 1.000000
vn 0.000000 0.000000 1.000000
vn 0.000000 0.000000 1.000000
vn 0.000000 0.000000 1.000000
vn 0.000000 0.000000 1.000000
vn 0.000000 0.000000 1.000000
vn 0.000000 0.000000 1.000000
vn 0.000000 1.000000 -0.000000
vn 0.000000 1.000000 -0.000000
vn 0.000000 1.000000 -0.000000
vn 0.000000 1.000000 -0.000000
vn 0.000000 1.000000 0.000000
vn 0.000000 1.000000 0.000000
vn 0.000000 1.000000 0.000000
vn 0.000000 1.000000 0.000000
vn 0.000000 0.000000 -1.000000
vn 0.000000 0.000000 -1.000000
vn 0.000000 0.000000 -1.000000
vn 0.000000 0.000000 -1.000000
vn -0.000000 0.000000 -1.000000
vn -0.000000 0.000000 -1.000000
vn -0.000000 0.000000 -1.000000
vn -0.000000 0.000000 -1.000000
vn 0.000000 -1.000000 0.000000
vn 0.000000 -1.000000 0.000000
vn 0.000000 -1.000000 0.000000
vn 0.000000 -1.000000 0.000000
vn 0.000000 -1.000000 0.000000
vn 0.000000 -1.000000 0.000000
vn 0.000000 -1.000000 0.000000
vn 0.000000 -1.000000 0.000000
vn 0.000000 0.000000 1.000000
vn 0.000000 0.000000 1.000000
vn 0.000000 0.000000 1.000000
vn 0.000000 0.000000 1.000000
vn 0.000000 0.000000 1.000000
vn 0.000000 0.000000 1.000000
vn 0.000000 0.000000 1.000000
vn 0.000000 0.000000 1.000000
vn 0.000000 0.000000 1.000000
vn 0.000000 0.000000 1.000000
vn 0.000000 0.000000 1.000000
vn 0.000000 0.000000 1.000000
vn -0.000000 0.000000 1.000000
vn -0.000000 0.000000 1.000000
vn -0.000000 0.000000 1.000000
vn -0.000000 0.000000 1.000000
vn 0.000000 1.000000 0.000000
vn 0.000000 1.000000 0.000000
vn 0.000000 1.000000 0.000000
vn 0.000000 1.000000 0.000000
vn -0.000000 1.000000 0.000001
vn -0.000000 1.000000 0.000001
vn -0.000000 1.000000 0.000001
vn -0.000000 1.000000 0.000001
vn 0.000000 1.000000 0.000000
vn 0.000000 1.000000 0.000000
vn 0.000000 1.000000 0.000000
vn 0.000000 1.000000 0.000000
vn 0.000000 1.000000 0.000000
vn 0.000000 1.000000 0.000000
vn 0.000000 1.000000 0.000000
vn 0.000000 1.000000 0.000000
vn 0.000000 0.000000 -1.000000
vn 0.000000 0.000000 -1.000000
vn 0.000000 0.000000 -1.000000
vn 0.000000 0.000000 -1.000000
vn 0.000000 0.000000 -1.000000
vn 0.000000 0.000000 -1.000000
vn 0.000000 0.000000 -1.000000
vn 0.000000 0.000000 -1.000000
vn 0.000000 0.000000 -1.000000
vn 0.000000 0.000000 -1.000000
vn 0.000000 0.000000 -1.000000
vn 0.000000 0.000000 -1.000000
vn 0.000000 0.000000 -1.000000
vn 0.000000 0.000000 -1.000000
vn 0.000000 0.000000 -1.000000
vn 0.000000 0.000000 -1.000000
vn 0.000000 -1.000000 0.000000
vn 0.000000 -1.000000 0.000000
vn 0.000000 -1.000000 0.000000
vn 0.000000 -1.000000 0.000000
vn 0.000000 -1.000000 0.000000
vn 0.000000 -1.000000 0.000000
vn 0.000000 -1.000000 0.000000
vn 0.000000 -1.000000 -0.000000
vn 0.000000 -1.000000 0.000000
vn 0.000000 -1.000000 0.000000
vn 0.000000 -1.000000 0.000000
vn 0.000000 -1.000000 0.000000
vn 0.000000 -1.000000 0.000000
vn 0.000000 -1.000000 -0.000000
vn 0.000000 -1.000000 0.000000
vn 0.000000 -1.000000 0.000000
vn 0.000000 -1.000000 0.000000
vn 0.000000 -1.000000 0.000000
vn 0.000000 -1.000000 0.000000
vn 0.000000 -1.000000 0.000000
vn 0.000000 -1.000000 0.000000
vn 0.000000 -1.000000 0.000000
vn 0.000000 -1.000000 0.000000
vn 0.000000 -1.000000 0.000000
vn 0.000000 -1.000000 0.000000
vn 0.000000 -1.000000 0.000000
vn 0.000000 0.000000 1.000000
vn 0.000000 0.000000 1.000000
vn 0.000000 0.000000 1.000000
vn 0.000000 0.000000 1.000000
vn 0.000000 0.000000 -1.000000
vn 0.000000 0.000000 -1.000000
vn 0.000000 0.000000 -1.000000
vn 0.000000 0.000000 -1.000000
vn 0.000000 0.000000 1.000000
vn 0.000000 0.000000 1.000000
vn 0.000000 0.000000 -1.000000
vn 0.000000 0.000000 -1.000000
vn 0.000000 0.379278 0.925283
vn 0.000000 0.379278 0.925283
vn 0.000000 0.379278 0.925283
vn 0.000000 0.379278 0.925283
vn 0.000000 0.379278 -0.925283
vn 0.000000 0.379278 -0.925283
vn 0.000000 0.379278 -0.925283
vn 0.000000 0.379278 -0.925283
vn 0.000000 0.379278 0.925283
vn 0.000000 0.379278 0.925283
vn 0.000000 0.379278 -0.925283
vn 0.000000 0.379278 -0.925283
vn 0.000000 1.000000 0.000000
vn 0.000000 1.000000 0.000000
vn 0.000000 1.000000 0.000000
vn 0.000000 1.000000 0.000000
vn 0.000000 1.000000 -0.000000
vn 0.000000 1.000000 0.000000
vn 0.000000 1.000000 0.000000
vn 0.000000 1.000000 -0.000000
vn 0.000000 1.000000 0.000000
vn 0.000000 1.000000 0.000000
vn 0.000000 1.000000 -0.000000
vn 0.000000 1.000000 -0.000000
vn -0.000000 0.000000 -1.000000
vn -0.000275 0.000000 -1.000000
vn -0.000275 0.000000 -1.000000
vn -0.000000 0.000000 -1.000000
vn 0.000000 0.000000 1.000000
vn 0.000275 0.000000 1.000000
vn 0.000275 0.000000 1.000000
vn 0.000000 0.000000 1.000000
vn 0.000275 0.000000 -1.000000
vn 0.000275 0.000000 -1.000000
vn -0.000275 0.000000 1.000000
vn -0.000275 0.000000 1.000000
vn 0.000000 1.000000 -0.000000
vn 0.000000 1.000000 -0.000000
vn 0.000000 1.000000 -0.000000
vn 0.000000 1.000000 -0.000000
vn 0.000000 1.000000 -0.000000
vn 0.000000 1.000000 0.000000
vn 0.000000 1.000000 0.000000
vn 0.000000 1.000000 -0.000000
vn 0.000000 1.000000 -0.000001
vn 0.000000 1.000000 -0.000001
vn 0.000000 1.000000 -0.000001
vn 0.000000 1.000000 -0.000001
vn 0.000000 0.000000 1.000000
vn 0.000558 0.000000 1.000000
vn 0.000558 0.000000 1.000000
vn 0.000000 0.000000 1.000000
vn 0.000000 0.000000 -1.000000
vn -0.000558 0.000000 -1.000000
vn -0.000558 0.000000 -1.000000
vn 0.000000 0.000000 -1.000000
vn -0.000558 0.000000 1.000000
vn -0.000558 0.000000 1.000000
vn 0.000558 0.000000 -1.000000
vn 0.000558 0.000000 -1.000000
vn 0.000000 -1.000000 -0.000000
vn 0.000000 -1.000000 0.000000
vn 0.000000 -1.000000 0.000000
vn 0.000000 -1.000000 -0.000000
vn 0.000000 -1.000000 -0.000000
vn 0.000000 -1.000000 -0.000000
vn 0.000000 -1.000000 -0.000000
vn 0.000000 -1.000000 -0.000000
vn 0.000000 -1.000000 -0.000001
vn 0.000000 -1.000000 -0.000001
vn 0.000000 -1.000000 0.000000
vn 0.000000 -1.000000 0.000000
vn 0.000000 0.000000 1.000000
vn 0.000121 0.000000 1.000000
vn 0.000121 0.000000 1.000000
vn 0.000000 0.000000 1.000000
vn 0.000000 0.000000 -1.000000
vn -0.000121 0.000000 -1.000000
vn -0.000121 0.000000 -1.000000
vn 0.000000 0.000000 -1.000000
vn -0.000121 0.000000 1.000000
vn -0.000121 0.000000 1.000000
vn 0.000121 0.000000 -1.000000
vn 0.000121 0.000000 -1.000000
vn 0.000000 -1.000000 -0.000000
vn 0.000000 -1.000000 0.000000
vn 0.000000 -1.000000 0.000000
vn 0.000000 -1.000000 0.000000
vn 0.000000 -1.000000 0.000000
vn 0.000000 -1.000000 0.000000
vn 0.000000 -1.000000 0.000000
vn 0.000000 -1.000000 0.000000
vn 0.000000 -1.000000 -0.000000
vn 0.000000 -1.000000 0.000000
vn 0.000000 -1.000000 0.000001
vn 0.000000 -1.000000 -0.000000
vn 0.000000 -1.000000 -0.000000
vn 0.000000 -1.000000 -0.000000
vn 0.000000 -1.000000 -0.000001
vn 0.000000 -1.000000 0.000000
vn 0.000000 -1.000000 0.000000
vn 0.000000 -1.000000 0.000000
vn 0.000000 -1.000000 0.000000
vn 0.000000 -1.000000 0.000000
vn 0.000000 -1.000000 0.000000
vn 0.000000 -1.000000 0.000000
vn -1.000000 0.000000 0.000000
vn -1.000000 0.000000 0.000000
vn -1.000000 0.000000 0.000000
vn -1.000000 0.000000 0.000000
vn 0.000000 0.000000 -1.000000
vn 0.000000 0.000000 -1.000000
vn 0.000000 0.000000 -1.000000
vn 0.000000 0.000000 -1.000000
vn 1.000000 0.000000 0.000000
vn 1.000000 0.000000 0.000000
vn 1.000000 0.000000 0.000000
vn 1.000000 0.000000 0.000000
vn 0.000000 0.000000 1.000000
vn 0.000000 0.000000 1.000000
vn 0.000000 0.000000 1.000000
vn 0.000000 0.000000 1.000000
vn 1.000000 0.000000 0.000000
vn 1.000000 0.000000 0.000000
vn 1.000000 0.000000 0.000000
vn 1.000000 0.000000 0.000000
vn 0.000000 0.000000 1.000000
vn 0.000000 0.000000 1.000000
vn 0.000000 0.000000 1.000000
vn 0.000000 0.000000 1.000000
vn -1.000000 0.000000 0.000000
vn -1.000000 0.000000 0.000000
vn -1.000000 0.000000 0.000000
vn -1.000000 0.000000 0.000000
vn 0.000000 0.000000 -1.000000
vn 0.000000 0.000000 -1.000000
vn 0.000000 0.000000 -1.000000
vn 0.000000 0.000000 -1.000000
vn 0.000000 0.000000 -1.000000
vn 0.000000 0.000000 -1.000000
vn 0.000000 0.000000 -1.000000
vn 0.000000 0.000000 -1.000000
vn 1.000000 0.000000 0.000000
vn 1.000000 0.000000 0.000000
vn 1.000000 0.000000 0.000000
vn 1.000000 0.000000 0.000000
vn 0.000000 0.000000 1.000000
vn 0.000000 0.000000 1.000000
vn 0.000000 0.000000 1.000000
vn 0.000000 0.000000 1.000000
vn -1.000000 0.000000 0.000000
vn -1.000000 0.000000 0.000000
vn -1.000000 0.000000 0.000000
vn -1.000000 0.000000 0.000000
vn 0.000000 0.000000 1.000000
vn 0.000000 0.000000 1.000000
vn 0.000000 0.000000 1.000000
vn 0.000000 0.000000 1.000000
vn -1.000000 0.000000 0.000000
vn -1.000000 0.000000 0.000000
vn -1.000000 0.000000 0.000000
vn -1.000000 0.000000 0.000000
vn 0.000000 0.000000 -1.000000
vn 0.000000 0.000000 -1.000000
vn 0.000000 0.000000 -1.000000
vn 0.000000 0.000000 -1.000000
vn 1.000000 0.000000 0.000000
vn 1.000000 0.000000 0.000000
vn 1.000000 0.000000 0.000000
vn 1.000000 0.000000 0.000000
s off
g conveyor_oven_middle
usemtl initialShadingGroup
f 10/1/1 2/2/2 101/3/3 102/4/4
f 21/5/5 3/6/6 12/7/7 22/8/8
f 62/9/9 61/10/10 123/11/11 122/12/12
f 64/13/13 63/14/14 65/15/15 66/16/16
f 15/17/17 4/18/18 110/19/19 109/20/20
f 23/21/21 6/22/22 18/23/23 24/24/24
f 86/25/25 85/26/26 87/27/27 88/28/28
f 90/29/29 89/30/30 91/31/31 92/32/32
f 9/33/33 2/2/34 10/1/35 8/34/36
f 10/1/37 1/35/38 11/36/39 8/34/40
f 67/37/41 61/10/42 62/9/43 60/38/44
f 62/9/45 68/39/46 59/40/47 60/38/48
f 14/41/49 4/18/50 15/17/51 13/42/52
f 15/17/53 5/43/54 16/44/55 13/42/56
f 93/45/57 94/46/58 95/47/59 96/48/60
s 1
f 19/49/61 7/168/62 20/169/63 17/52/64
s off
f 134/53/65 1/35/66 10/1/67 102/4/68
f 124/54/69 3/6/70 21/5/71 125/55/72
f 21/5/73 1/35/74 134/53/75 125/55/76
f 11/36/77 1/35/78 21/5/79 22/8/80
f 121/56/81 68/39/82 62/9/83 122/12/84
f 111/57/85 63/14/86 64/13/87 112/58/88
f 64/13/89 68/39/90 121/56/91 112/58/92
f 59/40/93 68/39/94 64/13/95 66/16/96
f 108/59/97 5/43/98 15/17/99 109/20/100
f 106/60/101 6/22/102 23/21/103 107/61/104
f 23/21/105 5/43/106 108/59/107 107/61/108
f 16/44/109 5/43/110 23/21/111 24/24/112
s 1
f 103/62/113 7/168/114 19/49/61 104/63/115
s off
f 98/64/116 97/65/117 99/66/118 100/67/119
s 3
f 25/68/120 7/50/121 103/167/122 105/69/123
f 20/51/124 7/50/125 25/68/120 26/70/126
s 5
f 3/6/127 124/54/128 126/71/129 27/72/130
s 6
f 4/18/131 14/41/132 29/73/133 28/74/134
s 5
f 12/7/135 3/6/127 27/72/130 30/75/136
s 6
f 110/19/137 4/18/131 28/74/134 120/76/138
s 7
f 27/72/139 126/71/140 127/77/141 31/78/142
s 8
f 28/74/143 29/73/144 33/79/145 32/80/146
s 7
f 30/75/147 27/72/139 31/78/142 34/81/148
s 8
f 120/76/149 28/74/143 32/80/146 119/82/150
s 9
f 31/78/151 127/77/152 128/83/153 35/84/154
s 10
f 32/80/155 33/79/156 37/85/157 36/86/158
s 9
f 34/81/159 31/78/151 35/84/154 38/87/160
s 10
f 119/82/161 32/80/155 36/86/158 118/88/162
s 11
f 35/84/163 128/83/164 129/89/165 39/90/166
s 12
f 36/86/167 37/85/168 41/91/169 40/92/170
s 11
f 38/87/171 35/84/163 39/90/166 42/93/172
s 12
f 118/88/173 36/86/167 40/92/170 117/94/174
s 13
f 39/90/175 129/89/176 130/95/177 43/96/178
s 14
f 40/92/179 41/91/180 45/97/181 44/98/182
s 13
f 42/93/183 39/90/175 43/96/178 46/99/184
s 14
f 117/94/185 40/92/179 44/98/182 116/100/186
s 15
f 43/96/187 130/95/188 131/101/189 47/102/190
s 16
f 44/98/191 45/97/192 49/103/193 48/104/194
s 15
f 46/99/195 43/96/187 47/102/190 50/105/196
s 16
f 116/100/197 44/98/191 48/104/194 115/106/198
s 17
f 47/102/199 131/101/200 132/107/201 51/108/202
s 18
f 48/104/203 49/103/204 53/109/205 52/110/206
s 17
f 50/105/207 47/102/199 51/108/202 54/111/208
s 18
f 115/106/209 48/104/203 52/110/206 114/112/210
s 19
f 51/108/211 132/107/212 133/113/213 55/114/214
s 20
f 52/110/215 53/109/216 57/115/217 56/116/218
s 19
f 54/111/219 51/108/211 55/114/214 58/117/220
s 20
f 114/112/221 52/110/215 56/116/218 113/118/222
s 21
f 55/114/223 133/113/224 123/11/225 61/10/226
s 22
f 56/116/227 57/115/228 65/15/229 63/14/230
s 21
f 58/117/231 55/114/223 61/10/226 67/37/232
s 22
f 113/118/233 56/116/227 63/14/230 111/57/234
s 1
f 19/49/61 6/22/235 69/165/236 70/163/237
f 6/22/235 106/60/238 71/161/239 69/165/236
f 106/60/238 104/63/115 72/159/240 71/161/239
f 104/63/115 19/49/61 70/163/237 72/159/240
s 3
f 25/68/120 2/2/241 73/157/242 74/155/243
f 2/2/241 9/33/244 75/153/245 73/157/242
f 9/33/244 26/70/126 76/151/246 75/153/245
f 26/70/126 25/68/120 74/155/243 76/151/246
s 1
f 18/23/247 6/22/235 78/147/248 77/149/249
f 6/22/235 19/49/61 79/145/250 78/147/248
f 19/49/61 17/52/64 80/143/251 79/145/250
f 17/52/64 18/23/247 77/149/249 80/143/251
s 3
f 101/3/252 2/2/241 81/141/253 82/139/254
f 2/2/241 25/68/120 83/137/255 81/141/253
f 25/68/120 105/69/123 84/135/256 83/137/255
f 105/69/123 101/3/252 82/139/254 84/135/256
s off
f 70/120/257 69/166/258 85/26/259 86/25/260
f 69/119/261 71/162/262 87/27/263 85/26/264
f 71/121/265 72/160/266 88/28/267 87/27/268
f 72/122/269 70/164/270 86/25/271 88/28/272
f 74/124/273 73/158/274 89/30/275 90/29/276
f 73/123/277 75/154/278 91/31/279 89/30/280
f 75/125/281 76/152/282 92/32/283 91/31/284
f 76/126/285 74/156/286 90/29/287 92/32/288
f 77/128/289 78/148/290 94/46/291 93/45/292
f 78/127/293 79/146/294 95/47/295 94/46/296
f 79/129/297 80/144/298 96/48/299 95/47/300
f 80/130/301 77/150/302 93/45/303 96/48/304
f 82/132/305 81/142/306 97/65/307 98/64/308
f 81/131/309 83/138/310 99/66/311 97/65/312
f 83/133/313 84/136/314 100/67/315 99/66/316
f 84/134/317 82/140/318 98/64/319 100/67/320
