# This file uses centimeters as units for non-parametric coordinates.

mtllib Crate.mtl
g default
v 0.000000 0.000000 0.773554
v 0.773554 0.000000 0.773554
v 0.000000 0.906139 0.773554
v 0.773554 0.906139 0.773554
v 0.000000 0.906139 0.000000
v 0.773554 0.906139 0.000000
v 0.000000 0.000000 0.000000
v 0.773554 0.000000 0.000000
v 0.037348 0.906139 0.736206
v 0.736206 0.906139 0.736206
v 0.736206 0.906139 0.037348
v 0.037348 0.906139 0.037348
v 0.037348 0.029141 0.736206
v 0.736206 0.029141 0.736206
v 0.736206 0.029141 0.037348
v 0.037348 0.029141 0.037348
vt 0.336050 0.390044
vt 0.390044 0.533945
vt 0.453293 0.702510
vt 0.167485 0.453293
vt 0.215927 0.048780
vt 0.048780 0.654067
vt 0.654067 0.821214
vt 0.821214 0.215927
vt 0.416702 0.167485
vt 0.702510 0.416702
vt 0.533945 0.479951
vt 0.479951 0.336050
vt 0.462847 0.706851
vt 0.163144 0.462847
vt 0.706851 0.407147
vt 0.407147 0.163144
vt 0.951220 0.167147
vt 0.869995 0.345933
vt 1.000000 0.297152
vt 0.345933 0.000000
vt 0.000000 0.524062
vt 0.524062 0.869995
vt 0.658070 0.277142
vt 0.592853 0.658070
vt 0.277142 0.211924
vt 0.211924 0.592853
vt 0.648516 0.272801
vt 0.597193 0.648516
vt 0.272801 0.221479
vt 0.221479 0.597193
vn 0.000000 0.000000 1.000000
vn 0.000000 0.000000 1.000000
vn 0.000000 0.000000 1.000000
vn 0.000000 0.000000 1.000000
vn 0.000000 1.000000 -0.000000
vn 0.000000 1.000000 -0.000000
vn 0.000000 1.000000 -0.000000
vn 0.000000 1.000000 -0.000000
vn 0.000000 0.000000 -1.000000
vn 0.000000 0.000000 -1.000000
vn 0.000000 0.000000 -1.000000
vn 0.000000 0.000000 -1.000000
vn 0.000000 -1.000000 0.000000
vn 0.000000 -1.000000 0.000000
vn 0.000000 -1.000000 0.000000
vn 0.000000 -1.000000 0.000000
vn 1.000000 0.000000 0.000000
vn 1.000000 0.000000 0.000000
vn 1.000000 0.000000 0.000000
vn 1.000000 0.000000 0.000000
vn -1.000000 0.000000 0.000000
vn -1.000000 0.000000 0.000000
vn -1.000000 0.000000 0.000000
vn -1.000000 0.000000 0.000000
vn 0.000000 1.000000 -0.000000
vn 0.000000 1.000000 -0.000000
vn 0.000000 1.000000 -0.000000
vn 0.000000 1.000000 -0.000000
vn 0.000000 1.000000 -0.000000
vn 0.000000 1.000000 -0.000000
vn 0.000000 1.000000 -0.000000
vn 0.000000 1.000000 -0.000000
vn 0.000000 1.000000 -0.000000
vn 0.000000 1.000000 -0.000000
vn 0.000000 1.000000 -0.000000
vn 0.000000 1.000000 -0.000000
vn 0.000000 1.000000 -0.000000
vn 0.000000 1.000000 -0.000000
vn 0.000000 1.000000 -0.000000
vn 0.000000 1.000000 -0.000000
vn 0.000000 0.000000 -1.000000
vn 0.000000 0.000000 -1.000000
vn 0.000000 0.000000 -1.000000
vn 0.000000 0.000000 -1.000000
vn -1.000000 0.000000 0.000000
vn -1.000000 0.000000 0.000000
vn -1.000000 0.000000 0.000000
vn -1.000000 0.000000 0.000000
vn 0.000000 0.000000 1.000000
vn 0.000000 0.000000 1.000000
vn 0.000000 0.000000 1.000000
vn 0.000000 0.000000 1.000000
vn 1.000000 0.000000 0.000000
vn 1.000000 0.000000 0.000000
vn 1.000000 0.000000 0.000000
vn 1.000000 0.000000 0.000000
s off
g Crate___Lid:storage_crate
usemtl Crate___Lid:initialShadingGroup
f 1/1/1 2/2/2 4/30/3 3/4/4
f 13/17/5 14/19/6 15/18/7 16/8/8
f 5/27/9 6/10/10 8/11/11 7/12/12
f 7/12/13 8/11/14 2/2/15 1/1/16
f 2/2/17 8/11/18 6/28/19 4/3/20
f 7/12/21 1/1/22 3/29/23 5/9/24
f 3/4/25 4/30/26 10/26/27 9/14/28
f 4/3/29 6/28/30 11/24/31 10/13/32
f 6/10/33 5/27/34 12/23/35 11/15/36
f 5/9/37 3/29/38 9/25/39 12/16/40
f 9/14/41 10/26/42 14/6/43 13/21/44
f 10/13/45 11/24/46 15/7/47 14/22/48
f 11/15/49 12/23/50 16/8/51 15/18/52
f 12/16/53 9/25/54 13/5/55 16/20/56
